<?xml version="1.0" standalone="no"?>
<!DOCTYPE svg PUBLIC "-//W3C//DTD SVG 20010904//EN"
 "http://www.w3.org/TR/2001/REC-SVG-20010904/DTD/svg10.dtd">
<svg version="1.0" xmlns="http://www.w3.org/2000/svg"
 width="582.000000pt" height="608.000000pt" viewBox="0 0 582.000000 608.000000"
 preserveAspectRatio="xMidYMid meet">

<g transform="translate(0.000000,608.000000) scale(0.100000,-0.100000)"
fill="#000000" stroke="none">
<path d="M1806 5011 c-4 -5 -2 -12 3 -15 5 -4 12 -2 15 3 4 5 2 12 -3 15 -5 4
-12 2 -15 -3z"/>
<path d="M4246 4995 c-8 -8 -19 -15 -25 -15 -6 0 -17 -11 -26 -23 -8 -13 -26
-29 -40 -35 -15 -7 -25 -20 -25 -32 0 -12 -12 -26 -30 -35 -16 -9 -30 -22 -30
-30 0 -7 -9 -17 -20 -20 -11 -4 -27 -22 -35 -41 -7 -18 -49 -69 -92 -113 -110
-112 -202 -215 -282 -317 -38 -49 -105 -125 -150 -169 -44 -44 -81 -88 -81
-97 0 -9 -10 -29 -23 -45 -13 -15 -40 -54 -61 -86 -44 -67 -49 -71 -73 -59
-10 5 -38 19 -63 31 -25 12 -56 28 -70 35 -14 8 -68 21 -120 30 -52 9 -118 21
-145 27 -28 6 -77 9 -110 6 -103 -8 -270 -44 -321 -70 -27 -13 -67 -28 -89
-31 -21 -4 -54 -21 -73 -37 -18 -16 -39 -29 -46 -29 -16 0 -159 -76 -208 -110
-81 -57 -148 -111 -148 -120 0 -6 -11 -10 -26 -10 -18 0 -28 -7 -35 -27 -5
-16 -28 -41 -49 -57 -22 -17 -40 -33 -40 -36 0 -3 -20 -28 -45 -55 -25 -28
-52 -64 -60 -81 -8 -17 -21 -37 -30 -44 -8 -7 -15 -20 -15 -29 0 -9 -16 -49
-35 -89 -19 -40 -40 -103 -45 -140 -6 -37 -19 -92 -28 -122 -14 -45 -17 -98
-17 -295 0 -230 1 -241 22 -275 12 -19 27 -57 33 -85 6 -27 17 -57 25 -65 8
-8 18 -24 22 -35 14 -34 87 -121 116 -138 15 -9 27 -22 27 -30 0 -7 18 -24 40
-36 22 -12 50 -35 62 -51 11 -16 40 -43 64 -60 24 -17 56 -48 71 -70 15 -21
45 -48 65 -60 21 -12 43 -29 50 -39 7 -10 23 -21 34 -25 21 -6 21 -8 7 -49 -8
-23 -21 -49 -29 -58 -8 -8 -14 -23 -14 -33 0 -22 -19 -59 -36 -69 -7 -4 -16
-23 -20 -42 -3 -20 -10 -38 -15 -41 -5 -3 -21 -29 -36 -57 -14 -29 -32 -56
-39 -62 -7 -5 -20 -30 -29 -55 -9 -24 -24 -54 -34 -65 -10 -11 -26 -41 -35
-68 -10 -26 -21 -47 -26 -47 -10 0 -25 -47 -35 -102 -5 -30 -3 -38 9 -38 9 0
18 12 21 28 4 15 8 37 11 49 2 12 15 39 29 59 14 20 25 45 25 55 0 11 9 28 21
40 11 11 27 39 35 62 8 23 23 51 34 62 10 11 29 42 40 68 12 27 28 51 36 54 8
3 14 16 14 28 0 13 6 30 13 37 29 30 47 64 47 91 0 15 6 30 14 33 8 3 19 24
26 48 l11 42 52 -26 c29 -14 67 -35 84 -47 19 -14 46 -23 67 -23 26 0 44 -8
62 -25 14 -14 40 -28 57 -32 29 -5 96 -31 138 -53 9 -5 35 -14 58 -20 22 -6
47 -18 53 -26 7 -9 21 -23 31 -32 10 -9 27 -33 37 -52 10 -19 41 -54 69 -78
28 -24 51 -47 51 -51 0 -12 100 -110 132 -129 15 -9 28 -23 28 -32 0 -15 94
-100 111 -100 5 0 9 -6 9 -14 0 -14 29 -31 37 -22 11 10 -10 48 -35 63 -15 10
-44 36 -64 58 -21 22 -45 47 -53 55 -9 8 -47 45 -85 82 -39 37 -70 72 -70 77
0 6 -16 21 -36 35 -40 27 -100 109 -83 114 20 7 59 -9 59 -24 0 -14 20 -16
168 -13 108 3 174 8 183 16 8 6 43 17 79 24 46 9 70 19 83 36 10 13 23 23 30
23 22 0 137 64 137 76 0 7 10 19 23 25 12 7 32 21 43 33 12 12 52 50 89 86 37
36 75 84 86 108 10 23 22 42 27 42 12 0 32 46 32 74 0 13 14 37 30 54 18 19
30 43 30 58 0 15 10 43 23 63 12 20 27 54 33 76 7 22 23 71 38 109 20 53 26
87 26 148 0 61 3 80 15 84 13 5 15 34 15 178 0 95 -4 176 -9 182 -4 5 -14 45
-21 88 -12 79 -36 146 -52 146 -4 0 -8 6 -8 14 0 32 -93 196 -111 196 -5 0 -9
7 -9 16 0 20 -53 86 -132 166 -31 32 -59 67 -63 77 -3 11 -14 23 -25 26 -10 3
-23 19 -29 35 -5 17 -17 30 -26 30 -8 0 -20 11 -25 25 -5 14 -21 30 -35 37
-14 6 -25 17 -25 25 0 7 -15 23 -34 34 -25 14 -33 25 -29 36 5 11 -7 28 -36
53 l-42 36 31 38 c16 22 30 42 30 47 0 4 15 27 34 52 19 24 37 55 41 67 4 13
41 57 82 99 42 42 117 128 168 191 51 63 106 127 121 141 16 15 60 63 98 107
38 45 77 84 87 87 10 3 28 26 40 51 12 25 32 50 45 56 13 6 24 16 24 23 0 6
14 21 30 33 17 13 30 29 30 37 0 8 13 21 29 29 16 9 31 22 34 31 4 8 12 15 18
15 7 0 17 7 24 16 10 15 20 10 86 -46 41 -34 103 -82 139 -106 36 -23 95 -76
132 -117 41 -45 107 -102 165 -142 90 -62 243 -202 243 -223 0 -5 16 -17 35
-28 19 -10 35 -24 35 -30 0 -13 49 -29 58 -19 4 3 -12 21 -33 40 -49 42 -70
62 -149 144 -33 35 -102 92 -153 127 -50 36 -127 101 -170 145 -43 44 -105 99
-138 122 -55 37 -154 117 -197 160 -22 21 -52 22 -72 2z m-1394 -1024 c71 -16
160 -32 208 -38 26 -3 57 -16 73 -29 15 -13 46 -29 68 -35 41 -13 89 -59 89
-85 0 -8 11 -20 25 -26 14 -6 25 -17 25 -25 0 -7 16 -21 35 -30 20 -9 35 -24
35 -34 0 -9 13 -22 30 -29 18 -7 30 -20 30 -31 0 -10 13 -25 30 -34 18 -9 30
-23 30 -36 0 -11 10 -23 24 -29 13 -5 27 -18 31 -29 3 -10 24 -36 46 -58 49
-46 49 -45 99 -108 22 -27 40 -57 40 -66 0 -9 6 -19 14 -22 17 -7 76 -93 76
-111 0 -8 7 -19 15 -26 8 -7 15 -22 15 -33 0 -11 9 -31 21 -43 14 -15 25 -49
35 -110 8 -49 19 -97 24 -106 6 -10 10 -87 10 -172 0 -124 -3 -156 -15 -166
-11 -9 -15 -33 -15 -90 0 -58 -6 -94 -26 -146 -14 -38 -31 -87 -37 -109 -5
-22 -21 -56 -34 -75 -12 -19 -23 -45 -23 -59 0 -13 -13 -39 -30 -58 -18 -20
-30 -45 -30 -62 0 -16 -13 -44 -30 -66 -17 -21 -30 -44 -30 -52 0 -15 -103
-122 -200 -207 -53 -46 -133 -96 -156 -96 -6 0 -21 -11 -33 -24 -13 -14 -40
-28 -63 -31 -22 -4 -64 -16 -93 -26 -43 -15 -82 -19 -185 -19 -117 0 -132 2
-150 20 -11 11 -32 20 -47 20 -16 0 -50 12 -78 25 -27 14 -58 25 -67 25 -9 0
-29 6 -45 14 -97 47 -120 56 -140 56 -12 0 -35 12 -52 26 -19 15 -49 28 -74
31 -23 3 -56 16 -73 28 -16 13 -46 30 -65 38 -19 8 -43 24 -53 36 -11 11 -28
21 -39 21 -24 0 -60 30 -219 183 -67 64 -126 117 -130 117 -7 0 -90 82 -145
142 -12 13 -29 41 -39 61 -10 20 -21 37 -25 37 -4 0 -13 24 -19 53 -7 28 -22
68 -34 87 -20 33 -21 48 -21 265 0 183 3 241 16 285 9 30 21 87 27 125 7 41
23 93 41 125 16 30 32 70 36 87 4 18 12 36 19 40 7 5 21 25 31 46 9 20 54 75
100 121 45 46 85 91 88 100 4 9 15 16 26 16 12 0 28 12 37 26 10 14 34 34 56
45 21 11 38 24 38 29 0 5 13 16 29 25 16 8 35 20 43 27 15 15 152 84 184 93
12 3 33 17 46 30 14 13 46 29 74 35 27 6 58 17 70 25 28 18 115 42 184 51 30
3 64 10 75 15 28 11 116 11 167 0z"/>
</g>
</svg>
